<svg version="1.1" id="Layer_1" xmlns="http://www.w3.org/2000/svg" xmlns:xlink="http://www.w3.org/1999/xlink" x="0px" y="0px"
	 width="100%" viewBox="0 0 940 788" enable-background="new 0 0 940 788" xml:space="preserve">
<path fill="#00BF63" opacity="1.000000" stroke="none" 
	d="
M941.000000,529.000000 
	C941.000000,615.642883 941.000000,702.285706 941.000000,788.964294 
	C627.776489,788.964294 314.553009,788.964294 1.000000,788.964294 
	C1.000000,672.975281 1.000000,556.950317 1.304214,440.649567 
	C5.319137,452.041870 13.149807,457.808899 25.889736,457.816345 
	C91.534691,457.854675 157.179688,457.818207 222.979767,458.170105 
	C232.423401,487.966187 241.711960,517.400024 250.536041,546.899780 
	C208.581696,546.977051 167.091858,546.988647 125.602013,546.999573 
	C116.270920,547.002014 106.938225,546.896423 97.609276,547.038513 
	C90.943161,547.140015 87.185242,551.597473 88.055832,558.191895 
	C88.313309,560.142273 89.003120,562.060669 89.679100,563.927002 
	C104.349342,604.430420 119.051247,644.922424 133.733780,685.421387 
	C138.400360,698.293274 145.217590,703.144104 158.782333,703.144470 
	C242.262314,703.146912 325.742310,703.152893 409.222290,703.141418 
	C434.382172,703.137939 459.542023,703.082764 484.844055,703.323730 
	C486.989838,709.455994 491.308502,711.671753 497.247559,711.619019 
	C506.527985,711.536682 515.826538,711.251892 525.085754,711.702209 
	C533.197998,712.096741 538.988831,709.646912 542.097534,701.573242 
	C554.966614,701.604431 567.330872,701.603821 580.080200,701.734009 
	C582.931824,702.794495 585.551453,703.445007 587.839966,704.699463 
	C602.320374,712.636780 615.887085,710.635376 629.322510,701.353455 
	C635.377930,701.473694 640.975098,701.473694 647.000000,701.473694 
	C651.719910,671.840210 656.425476,642.816101 660.864502,613.751221 
	C661.402588,610.227783 662.648193,609.398376 665.935669,609.547302 
	C671.686646,609.807800 677.457886,609.619934 683.526062,609.619934 
	C685.424866,586.190796 687.316162,562.854370 689.661743,539.528137 
	C766.605103,539.542358 843.094421,539.441833 919.582764,539.684875 
	C928.958191,539.714661 936.487549,537.848389 941.000000,529.000000 
z"/>
<path fill="#F4F9F3" opacity="1.000000" stroke="none" 
	d="
M222.824677,457.807831 
	C157.179688,457.818207 91.534691,457.854675 25.889736,457.816345 
	C13.149807,457.808899 5.319137,452.041870 1.304214,440.186920 
	C1.000000,353.312439 1.000000,266.624878 1.465112,179.531921 
	C115.100708,179.126526 228.271194,179.126526 341.501190,179.126526 
	C341.501190,163.982468 341.501190,149.536438 341.638611,134.634735 
	C341.776001,97.284920 341.776001,60.390766 341.776001,23.280323 
	C398.403748,23.280323 454.533020,23.280323 511.037781,23.280323 
	C511.037781,28.017706 511.037781,32.480385 511.017975,37.414692 
	C510.999969,112.019630 510.959137,186.153030 511.105133,260.286041 
	C511.114288,264.930359 509.791290,266.117279 505.235779,266.101501 
	C458.923828,265.941223 412.611115,266.003632 366.298615,266.003662 
	C352.368530,266.003662 352.368530,266.003662 353.482239,280.424866 
	C355.575928,280.751160 357.401733,281.059570 359.167908,280.854401 
	C363.052124,280.403259 364.570374,281.869019 364.132965,285.802643 
	C363.850433,288.343414 364.079865,290.941132 364.079865,294.240631 
	C368.470184,294.240631 372.204102,294.240631 375.912292,294.684418 
	C375.886536,299.380524 375.886536,303.632843 375.886536,308.366699 
	C397.265289,308.366699 417.909668,308.366699 438.553955,308.810791 
	C438.551300,350.382263 438.519775,391.509674 438.572998,432.636993 
	C438.582458,439.955536 436.715912,446.403473 431.271637,451.568085 
	C425.943115,456.622803 419.392273,457.846191 412.377625,457.847900 
	C363.258820,457.859863 314.139984,457.899689 264.838562,457.643890 
	C262.383209,451.385437 259.512390,445.559021 258.014832,439.398804 
	C256.659424,433.823364 256.802673,427.883606 256.722595,422.042725 
	C263.491333,421.952148 269.822540,421.900574 276.153748,421.903076 
	C279.947021,421.904572 282.983795,420.673401 282.907776,416.395630 
	C282.838348,412.490631 280.040710,411.083954 276.405121,411.107361 
	C269.241394,411.153534 262.077576,411.190674 254.657944,410.991943 
	C253.279724,407.965576 252.157364,405.178772 251.500946,402.370178 
	C256.120392,402.415649 260.274048,402.547760 264.427368,402.538910 
	C282.046539,402.501404 299.667358,402.542297 317.283569,402.281067 
	C322.246368,402.207489 324.929169,399.300903 324.810120,395.417999 
	C324.694641,391.653687 321.490570,388.889160 316.910736,388.887390 
	C291.303650,388.877563 265.696564,388.924438 239.908264,388.671082 
	C236.125320,383.829865 232.409485,379.354187 228.946930,374.690491 
	C222.804443,366.417236 216.895737,357.969330 210.683868,349.749695 
	C209.647675,348.378632 207.573044,347.792328 205.978271,346.843414 
	C204.995773,348.602600 203.377258,350.298859 203.195374,352.137268 
	C202.978958,354.324768 203.826202,356.687378 204.510376,358.881226 
	C206.654465,365.756348 208.938553,372.587830 211.290619,379.811554 
	C207.610138,379.811554 204.799118,379.664612 202.007828,379.837189 
	C190.377960,380.556213 182.372543,374.448334 175.758835,365.670654 
	C175.617844,363.497223 175.290283,361.648407 174.962708,359.799622 
	C173.131088,360.194794 171.299469,360.589996 169.169434,360.882080 
	C163.565643,356.466431 158.260269,352.153870 151.868027,346.957825 
	C152.153610,351.165375 152.339783,353.908417 152.525955,356.651459 
	C151.876297,357.112640 151.226639,357.573822 150.576981,358.034973 
	C149.792267,356.573578 149.269104,354.853943 148.151184,353.721466 
	C146.970871,352.525757 145.223434,351.889893 143.723740,351.009491 
	C142.810165,352.630890 141.457764,354.150696 141.054855,355.890350 
	C138.601440,366.483887 139.350372,376.918671 142.980469,387.398132 
	C137.083496,393.669922 131.373489,399.660828 125.395821,405.932526 
	C120.991150,401.459869 117.575706,397.576447 113.670479,394.271912 
	C112.452171,393.241028 109.910423,393.774200 107.974518,393.591370 
	C107.997177,395.533966 107.201195,398.223022 108.178658,399.294952 
	C113.518341,405.150787 119.293953,410.609100 125.684464,416.964661 
	C132.988602,409.309814 139.988220,401.974121 147.309753,394.786743 
	C154.404114,402.939941 161.679855,410.577820 167.840973,419.028351 
	C179.527939,435.058197 192.998260,447.726685 214.090881,449.393372 
	C218.657135,449.754181 221.866760,452.969116 222.824677,457.807831 
M285.496948,219.304550 
	C233.699081,219.304489 181.901199,219.299042 130.103348,219.323303 
	C127.953262,219.324310 125.746689,219.346451 123.665131,219.805878 
	C119.391861,220.749069 117.046494,223.654205 117.054291,227.997772 
	C117.062088,232.340622 119.370468,235.245728 123.711243,236.095474 
	C125.975311,236.538681 128.331009,236.674698 130.645477,236.675980 
	C185.774399,236.706390 240.903351,236.699799 296.032288,236.698563 
	C297.364563,236.698532 298.703949,236.768402 300.027924,236.659317 
	C305.977325,236.169205 309.582184,232.712128 309.419403,227.722488 
	C309.262451,222.911682 305.759064,219.650909 299.983185,219.364502 
	C295.497101,219.142044 290.991608,219.310425 285.496948,219.304550 
M147.046341,306.000824 
	C142.641907,306.322357 140.199097,308.943329 140.271072,313.099548 
	C140.346893,317.477753 143.585770,319.324402 147.622726,319.802917 
	C148.773590,319.939362 149.950027,319.877167 151.114746,319.877258 
	C196.064133,319.880157 241.013519,319.891968 285.962860,319.841553 
	C288.085663,319.839172 290.770874,319.970978 292.192780,318.811859 
	C294.123688,317.237762 296.443451,314.250061 296.113586,312.285522 
	C295.726349,309.979401 292.873993,307.863129 290.690033,306.186493 
	C289.736023,305.454041 287.786346,305.997192 286.288818,305.997101 
	C240.174072,305.993622 194.059341,305.994659 147.046341,306.000824 
M122.421616,247.319336 
	C118.691917,248.611526 116.249435,250.991226 117.206116,255.154373 
	C118.147018,259.248840 121.307152,260.251587 125.257080,260.190063 
	C135.080917,260.037018 144.908737,260.139862 154.734955,260.139862 
	C186.378708,260.139832 218.022552,260.103424 249.666092,260.186188 
	C253.575974,260.196411 256.663818,259.330078 257.810730,255.242691 
	C259.077728,250.727280 255.273590,247.136856 249.178391,247.135895 
	C207.209152,247.129318 165.239929,247.158920 122.421616,247.319336 
M157.514160,328.289734 
	C154.351913,328.289795 151.189316,328.260590 148.027481,328.296509 
	C142.888184,328.354919 139.823257,330.418457 140.214371,333.903534 
	C140.718613,338.396820 143.988846,339.069458 147.879517,339.056213 
	C170.847198,338.977997 193.815308,339.018097 216.783264,339.017639 
	C227.435074,339.017426 238.086884,339.005920 248.738678,339.019867 
	C252.297546,339.024506 254.689651,337.294861 254.741837,333.788422 
	C254.794205,330.269745 252.368179,328.485596 248.882751,328.311768 
	C247.554398,328.245514 246.220352,328.290070 244.888901,328.290039 
	C216.095734,328.289581 187.302567,328.290009 157.514160,328.289734 
M109.457748,320.957855 
	C121.476921,308.946960 133.498138,296.938110 145.513321,284.923218 
	C147.569748,282.866821 149.906830,280.542877 147.253647,277.708160 
	C144.255844,274.505280 141.922729,277.219604 139.781067,279.357635 
	C130.467148,288.655853 121.147163,297.948151 111.867935,307.280914 
	C106.851501,312.326294 101.912743,317.448914 96.673943,322.807739 
	C92.680679,318.696777 89.418098,314.857239 85.604858,311.678192 
	C84.304337,310.593964 81.619606,311.170044 79.567329,310.987549 
	C79.810402,313.046021 79.301041,315.761658 80.426117,317.049774 
	C85.439079,322.789093 90.919357,328.120239 96.925583,334.315643 
	C101.254501,329.689697 105.106133,325.573792 109.457748,320.957855 
M109.582512,203.047989 
	C110.523743,202.104874 111.444489,201.140198 112.410378,200.223053 
	C114.554199,198.187424 116.824829,195.864365 114.167458,193.051437 
	C111.454308,190.179443 109.110535,192.429489 107.021400,194.533157 
	C101.620552,199.971542 96.194572,205.384964 90.777275,210.807007 
	C81.842400,219.749771 72.906464,228.691483 63.600536,238.004349 
	C59.867325,234.176926 56.614918,230.374161 52.829075,227.209549 
	C51.464287,226.068710 48.187485,225.501846 46.889912,226.355408 
	C44.294224,228.062881 45.351521,230.694443 47.316544,232.724442 
	C52.604942,238.187759 57.902264,243.642441 63.398293,249.309067 
	C78.953293,233.725342 94.013260,218.637558 109.582512,203.047989 
M420.503906,193.647156 
	C440.658752,193.646835 460.813599,193.653519 480.968445,193.638031 
	C483.734253,193.635895 486.754547,193.444794 486.834198,189.817581 
	C486.905609,186.564026 484.325653,185.961975 481.565399,185.963882 
	C456.580048,185.981033 431.594086,185.903793 406.610840,186.134644 
	C404.956116,186.149933 403.322571,188.457352 401.679169,189.698624 
	C403.290924,191.011002 404.784790,193.227631 406.537872,193.456268 
	C410.796692,194.011642 415.175995,193.643066 420.503906,193.647156 
M473.466492,151.028641 
	C476.631134,151.017868 479.867645,151.395981 482.929688,150.830093 
	C484.431244,150.552612 485.608948,148.522720 486.933228,147.285919 
	C485.644165,146.007492 484.503754,144.496048 483.007965,143.541611 
	C482.165771,143.004196 480.737427,143.357193 479.573120,143.356918 
	C455.920044,143.351364 432.266937,143.345154 408.613892,143.370834 
	C407.132050,143.372437 405.440247,143.242096 404.230743,143.890518 
	C403.126434,144.482529 401.793335,146.142166 401.919830,147.162918 
	C402.083405,148.483185 403.361298,150.072830 404.595032,150.736053 
	C405.778473,151.372238 407.518555,151.020691 409.014038,151.021439 
	C430.168549,151.032013 451.323090,151.028641 473.466492,151.028641 
M456.500000,66.131798 
	C464.653809,66.131371 472.807678,66.109360 480.961334,66.142273 
	C483.794678,66.153709 486.831696,65.912148 486.780518,62.360428 
	C486.727478,58.679916 483.513458,58.826923 480.786011,58.867428 
	C480.286926,58.874840 479.787628,58.868271 479.288422,58.868271 
	C455.991852,58.868263 432.695251,58.866985 409.398682,58.871281 
	C407.901886,58.871555 406.212128,58.489967 404.962463,59.057487 
	C403.708649,59.626915 402.135498,61.136566 402.096100,62.282063 
	C402.055420,63.466045 403.454193,65.146004 404.661499,65.799583 
	C405.845093,66.440338 407.580139,66.121071 409.073242,66.122505 
	C424.548828,66.137352 440.024414,66.131828 456.500000,66.131798 
M425.500061,98.867088 
	C419.011383,98.872894 412.508179,98.649979 406.045074,99.059311 
	C404.587860,99.151596 403.270172,101.447556 401.888275,102.729080 
	C403.238464,103.859344 404.531982,105.071243 405.972321,106.071709 
	C406.423218,106.384911 407.269836,106.132072 407.935333,106.132088 
	C432.226440,106.132721 456.517517,106.133713 480.808624,106.128677 
	C481.805756,106.128471 483.061768,106.438553 483.743469,105.959053 
	C484.976868,105.091476 486.666229,103.744560 486.677734,102.583046 
	C486.689331,101.411072 485.104980,99.805710 483.829926,99.159088 
	C482.618256,98.544617 480.902283,98.875648 479.408020,98.874657 
	C461.772034,98.862968 444.136017,98.867012 425.500061,98.867088 
M407.022644,155.675949 
	C405.292145,156.701553 403.561646,157.727173 401.831116,158.752777 
	C403.622559,159.723297 405.411743,160.698135 407.210266,161.655304 
	C407.339905,161.724274 407.538086,161.664520 407.704376,161.664520 
	C424.501129,161.664551 441.297882,161.665726 458.094635,161.661682 
	C459.091370,161.661438 460.268890,161.946915 461.042328,161.519867 
	C462.195526,160.883133 463.779297,159.776947 463.844299,158.783173 
	C463.904724,157.859192 462.386688,156.401764 461.254242,155.943130 
	C459.951935,155.415710 458.309814,155.682541 456.815247,155.681564 
	C440.517426,155.670914 424.219574,155.675385 407.022644,155.675949 
M450.480042,70.984047 
	C435.662354,70.985077 420.843414,70.904007 406.028931,71.122101 
	C404.643158,71.142502 403.285217,73.053116 401.914337,74.086090 
	C403.250366,75.019699 404.489136,76.181366 405.956451,76.807159 
	C406.943237,77.228012 408.253296,76.892570 409.418732,76.892601 
	C423.736969,76.892998 438.055176,76.893585 452.373413,76.892227 
	C455.037231,76.891968 457.769012,77.234108 460.337280,76.736351 
	C461.701904,76.471863 462.783020,74.744736 463.992126,73.677856 
	C462.814606,72.783760 461.716614,71.284630 460.443573,71.117401 
	C457.497131,70.730309 454.465973,70.987877 450.480042,70.984047 
M407.778870,116.999557 
	C424.600983,116.999542 441.423157,117.023064 458.245117,116.972580 
	C460.601410,116.965515 463.982208,117.667862 463.698090,113.922539 
	C463.614838,112.824715 460.362305,111.150627 458.545074,111.128006 
	C441.392487,110.914421 424.235382,110.925873 407.082245,111.116653 
	C405.348999,111.135933 402.369843,112.521500 402.149353,113.685936 
	C401.513031,117.045868 404.494019,116.931038 407.778870,116.999557 
M413.545929,198.128586 
	C411.221436,198.129730 408.804230,197.738144 406.602203,198.257996 
	C404.880676,198.664429 403.426147,200.201584 401.852966,201.236313 
	C403.475861,202.163788 405.084473,203.865112 406.723938,203.895386 
	C419.006378,204.122177 431.294922,204.019943 443.581543,204.018753 
	C449.226746,204.018188 454.879425,204.165497 460.511230,203.889099 
	C461.720520,203.829727 462.854218,202.230621 464.022705,201.340790 
	C462.967438,200.286041 462.076172,198.888931 460.806885,198.280960 
	C459.720520,197.760574 458.200989,198.130997 456.873016,198.130676 
	C442.759979,198.127350 428.646973,198.128647 413.545929,198.128586 
M387.900726,197.255356 
	C390.157471,193.231766 390.112885,189.283356 387.145050,185.677963 
	C384.616211,182.605911 381.244293,181.377548 377.333649,182.445206 
	C373.078003,183.607071 370.483612,186.436752 370.012756,190.886917 
	C369.541504,195.340790 371.457703,198.729019 375.417572,200.663330 
	C380.066010,202.933960 384.114960,201.655319 387.900726,197.255356 
M389.522736,148.732727 
	C387.741852,141.906891 383.949463,138.986252 377.995270,139.855011 
	C373.036346,140.578552 369.630219,144.957535 369.986023,150.151840 
	C370.318604,155.007202 374.154388,158.792435 379.024719,159.071442 
	C384.654602,159.393951 388.137207,156.218872 389.522736,148.732727 
M380.301086,109.586708 
	C385.945831,103.948196 391.665955,98.381905 397.183777,92.621803 
	C398.613434,91.129372 399.409637,89.030113 400.496796,87.209579 
	C398.527252,88.206406 396.194885,88.817696 394.652863,90.268837 
	C388.918793,95.665031 383.444580,101.337379 378.008209,106.770714 
	C375.394379,104.517921 373.360687,102.765160 370.790344,100.549835 
	C370.407654,102.217896 369.851257,103.291206 370.137146,103.610596 
	C372.452728,106.197662 374.874573,108.699509 377.426910,111.050461 
	C377.700958,111.302895 379.015076,110.426140 380.301086,109.586708 
M372.158569,61.277905 
	C369.128296,61.632950 369.552094,63.151413 370.995148,64.896324 
	C372.985504,67.303001 375.043640,69.653618 377.398895,72.409904 
	C384.985535,64.778038 391.811279,58.020737 398.465607,51.098648 
	C399.451447,50.073147 399.627808,48.269508 400.178680,46.825867 
	C398.843872,47.415569 397.198364,47.689312 396.225006,48.646542 
	C390.212952,54.559013 384.352234,60.625401 378.267517,66.817444 
	C376.122528,64.792664 374.456757,63.220261 372.158569,61.277905 
z"/>
<path fill="#00BF63" opacity="1.000000" stroke="none" 
	d="
M511.037781,36.943062 
	C511.037781,32.480385 511.037781,28.017706 511.037781,23.280323 
	C454.533020,23.280323 398.403748,23.280323 341.776001,23.280323 
	C341.776001,60.390766 341.776001,97.284920 341.205933,134.622894 
	C235.851120,135.067688 131.066345,135.064743 26.281570,135.093430 
	C23.803871,135.094116 21.281551,135.216049 18.856560,135.680740 
	C9.607096,137.453110 4.677239,144.067474 1.000000,152.000000 
	C1.000000,101.682106 1.000000,51.364216 1.000000,1.023162 
	C314.221771,1.023162 627.443542,1.023162 941.000000,1.023162 
	C941.000000,112.020668 941.000000,223.041672 940.700500,334.357849 
	C937.520569,327.212555 932.021667,324.025940 924.126282,324.031128 
	C838.476013,324.087250 752.825745,324.100891 667.175659,323.989349 
	C661.368652,323.981781 656.363525,325.226959 652.042114,328.755493 
	C649.746338,319.143555 647.516724,309.966858 645.792847,300.691223 
	C666.780701,300.578705 687.262939,300.555878 707.745117,300.553467 
	C757.036133,300.547729 806.327087,300.566376 855.618103,300.540527 
	C867.140930,300.534485 873.518494,294.656158 873.525452,283.800018 
	C873.562561,225.517059 873.517334,167.234055 873.606323,108.500107 
	C873.729858,104.551308 873.553284,101.039612 873.801453,97.558197 
	C874.585205,86.563438 867.169983,78.783539 855.165588,78.833870 
	C777.873474,79.157921 700.579346,78.999413 623.285889,78.999664 
	C611.625244,78.999702 599.963806,78.919998 588.304199,79.029396 
	C579.684692,79.110268 573.203857,85.580658 573.035339,94.181793 
	C572.937561,99.172768 573.112549,104.169083 573.101135,109.617493 
	C573.023376,159.102570 573.009338,208.133148 572.647949,257.350708 
	C563.287354,259.742462 554.273987,261.947235 545.221924,263.673065 
	C545.183167,197.317230 545.183167,131.440338 545.183167,65.164658 
	C541.022522,65.164658 537.557739,65.164658 534.026123,64.692688 
	C533.959290,59.988350 533.959290,55.755978 533.959290,51.152061 
	C529.791992,51.152061 526.357544,51.152061 522.804382,50.689735 
	C522.685730,45.974430 522.685730,41.721447 522.685730,36.943062 
	C518.286743,36.943062 514.662292,36.943062 511.037781,36.943062 
z"/>
<path fill="#F4F9F3" opacity="1.000000" stroke="none" 
	d="
M941.000000,528.531372 
	C936.487549,537.848389 928.958191,539.714661 919.582764,539.684875 
	C843.094421,539.441833 766.605103,539.542358 689.645142,539.124512 
	C689.771851,531.935974 690.403076,525.164062 690.960327,518.386108 
	C692.332703,501.693634 685.930237,487.954041 674.945251,475.709320 
	C688.423340,457.045197 693.480591,436.660156 690.158203,414.220856 
	C687.568604,396.731171 679.733032,381.923157 667.639404,369.101074 
	C663.266479,364.464783 659.731384,359.038391 656.292297,353.924255 
	C750.517273,353.868744 844.263916,353.861023 938.010559,353.860199 
	C939.007019,353.860199 940.003540,353.951385 941.000000,354.000000 
	C941.000000,412.020905 941.000000,470.041779 941.000000,528.531372 
M784.889404,371.210175 
	C784.889404,367.260712 784.889404,363.311249 784.889404,359.454590 
	C759.355713,356.397034 721.936462,378.181885 713.663818,400.747498 
	C717.887024,403.228638 722.167786,405.743591 726.148743,408.908051 
	C716.749817,425.307617 713.572815,442.843964 717.378052,461.354462 
	C723.921753,493.185883 748.862122,516.250671 782.771790,520.516968 
	C810.590149,524.016907 840.028076,510.293732 855.736267,482.197906 
	C860.196350,474.220612 863.224670,465.698517 863.949829,456.107971 
	C839.591858,452.936432 815.631897,449.816711 790.449341,446.537811 
	C810.336426,430.587891 829.313782,415.367584 848.593201,399.905029 
	C831.481384,380.063293 810.480591,371.051788 784.889404,371.210175 
M871.708740,415.890137 
	C868.299744,409.548492 864.890808,403.206818 861.268311,396.467804 
	C841.593628,412.220337 822.976807,427.125885 803.570129,442.663879 
	C828.514099,445.884399 852.178772,448.939728 876.004456,452.015839 
	C877.925415,439.424927 875.962524,427.909027 871.708740,415.890137 
z"/>
<path fill="#FDDC02" opacity="1.000000" stroke="none" 
	d="
M1.000000,152.468658 
	C4.677239,144.067474 9.607096,137.453110 18.856560,135.680740 
	C21.281551,135.216049 23.803871,135.094116 26.281570,135.093430 
	C131.066345,135.064743 235.851120,135.067688 341.068542,135.078552 
	C341.501190,149.536438 341.501190,163.982468 341.501190,179.126526 
	C228.271194,179.126526 115.100708,179.126526 1.465112,179.063263 
	C1.000000,170.312439 1.000000,161.624863 1.000000,152.468658 
M26.471437,164.109573 
	C29.928509,166.376862 33.769337,166.679672 36.449291,163.637146 
	C38.269909,161.570221 39.881046,157.784256 39.203552,155.462082 
	C38.453381,152.890808 35.208042,149.782089 32.645531,149.360306 
	C30.075428,148.937241 26.147476,150.822632 24.355099,152.977585 
	C21.512531,156.395157 22.590225,160.468552 26.471437,164.109573 
M60.795380,149.994003 
	C56.616104,152.916061 55.619907,156.851456 57.864594,161.257431 
	C59.691441,164.843246 62.936672,166.373566 67.012650,165.381470 
	C71.803093,164.215500 74.521996,159.738373 73.298203,155.201950 
	C71.918060,150.085892 67.830017,148.149536 60.795380,149.994003 
M104.517418,150.940948 
	C101.314354,148.384293 97.451729,147.614197 94.547081,150.344666 
	C92.457291,152.309143 90.961967,155.845215 90.850906,158.743454 
	C90.704056,162.575439 93.894852,165.395844 97.602592,165.357437 
	C100.359009,165.328873 103.871941,163.938354 105.657867,161.922806 
	C108.385628,158.844299 107.889740,154.847382 104.517418,150.940948 
z"/>
<path fill="#FDDC04" opacity="1.000000" stroke="none" 
	d="
M941.000000,353.531738 
	C940.003540,353.951385 939.007019,353.860199 938.010559,353.860199 
	C844.263916,353.861023 750.517273,353.868744 656.011414,353.709473 
	C651.536377,345.769989 651.773071,337.486725 652.108215,329.190765 
	C656.363525,325.226959 661.368652,323.981781 667.175659,323.989349 
	C752.825745,324.100891 838.476013,324.087250 924.126282,324.031128 
	C932.021667,324.025940 937.520569,327.212555 940.700500,334.826477 
	C941.000000,341.021149 941.000000,347.042297 941.000000,353.531738 
M716.540710,336.869720 
	C714.164612,339.356049 713.718872,342.192719 715.634888,345.016693 
	C717.795959,348.201874 720.902527,348.972260 724.366821,347.229614 
	C727.737305,345.534088 728.825806,341.506561 726.976685,338.259857 
	C725.005798,334.799255 721.690430,334.152313 716.540710,336.869720 
M673.911499,344.379852 
	C675.118713,339.390442 673.460388,335.844269 669.418030,335.085419 
	C665.854187,334.416412 662.591125,335.779083 662.022034,339.207947 
	C661.623840,341.607361 662.761536,345.237244 664.543762,346.804016 
	C667.535278,349.433655 671.050415,348.346497 673.911499,344.379852 
M696.897766,347.724854 
	C700.390015,346.087921 702.136780,343.185974 700.734314,339.686218 
	C699.960388,337.754913 697.613464,335.781281 695.574707,335.175171 
	C691.804321,334.054199 688.295715,337.131378 688.015076,340.997070 
	C687.699341,345.345642 690.614624,347.833710 696.897766,347.724854 
z"/>
<path fill="#FEDC00" opacity="1.000000" stroke="none" 
	d="
M674.793091,476.028748 
	C685.930237,487.954041 692.332703,501.693634 690.960327,518.386108 
	C690.403076,525.164062 689.771851,531.935974 689.190857,539.114258 
	C687.316162,562.854370 685.424866,586.190796 683.526062,609.619934 
	C677.457886,609.619934 671.686646,609.807800 665.935669,609.547302 
	C662.648193,609.398376 661.402588,610.227783 660.864502,613.751221 
	C656.425476,642.816101 651.719910,671.840210 647.000000,701.473694 
	C640.975098,701.473694 635.377930,701.473694 629.468201,701.087646 
	C635.322937,694.678467 638.554260,687.206787 640.519104,678.914062 
	C644.158630,663.553223 648.149353,648.275818 651.973816,632.958618 
	C653.917725,625.173218 655.817993,617.377075 657.809021,609.297424 
	C635.394775,608.532654 613.789185,607.921997 592.199280,606.958618 
	C587.530884,606.750183 586.236389,608.350952 585.863586,612.755493 
	C585.127930,621.447571 583.738464,630.084351 582.595337,638.929871 
	C572.128235,637.841736 562.233459,636.813049 552.248169,635.349365 
	C552.076904,633.255188 551.982849,631.596497 551.917480,629.936707 
	C551.488037,619.042419 548.490479,616.143005 537.635315,616.142090 
	C520.678528,616.140625 503.721680,616.138916 486.764862,616.142700 
	C477.588867,616.144775 474.966003,618.216370 472.544617,627.004700 
	C460.306519,626.082642 448.580078,623.510437 436.649536,625.922668 
	C433.122681,626.635803 429.448853,626.622009 425.842285,626.477173 
	C427.132721,609.317932 428.423248,592.622925 429.800232,575.513428 
	C429.911682,571.241333 431.256561,566.737976 429.738525,563.635193 
	C422.251740,548.332458 414.049255,533.377930 406.003479,518.351868 
	C403.518158,513.710449 400.730896,509.230682 398.039612,504.336609 
	C396.447845,500.756958 394.898346,497.517670 393.188080,493.942322 
	C394.903107,493.162659 396.362671,492.456543 397.854614,491.827209 
	C426.303925,479.826904 454.757080,467.835632 483.562897,455.827545 
	C501.396912,449.274139 519.350830,444.620270 537.936401,442.722229 
	C538.830139,447.354370 537.215149,449.452393 532.991089,450.593506 
	C529.542847,451.525024 526.137695,453.306763 523.240112,455.430176 
	C518.358704,459.007446 518.458923,464.017334 523.549561,467.256714 
	C527.284790,469.633545 531.440308,471.703674 535.694397,472.848145 
	C551.509033,477.102814 567.661438,477.367218 583.688232,474.628510 
	C590.277771,473.502441 596.781128,470.834076 602.827332,467.858704 
	C608.828552,464.905396 608.942139,458.994659 603.489990,455.092560 
	C600.833435,453.191254 597.712769,451.602722 594.565613,450.801331 
	C589.844299,449.599121 588.289490,447.082977 589.855469,442.648193 
	C620.857117,447.671295 649.360291,457.950439 674.793091,476.028748 
z"/>
<path fill="#000000" opacity="1.000000" stroke="none" 
	d="
M484.701904,703.051331 
	C459.542023,703.082764 434.382172,703.137939 409.222290,703.141418 
	C325.742310,703.152893 242.262314,703.146912 158.782333,703.144470 
	C145.217590,703.144104 138.400360,698.293274 133.733780,685.421387 
	C119.051247,644.922424 104.349342,604.430420 89.679100,563.927002 
	C89.003120,562.060669 88.313309,560.142273 88.055832,558.191895 
	C87.185242,551.597473 90.943161,547.140015 97.609276,547.038513 
	C106.938225,546.896423 116.270920,547.002014 125.602013,546.999573 
	C167.091858,546.988647 208.581696,546.977051 251.000946,546.972168 
	C260.400421,546.985779 268.870483,546.990723 277.340546,547.000549 
	C287.352448,547.012146 295.245605,552.228333 298.954926,561.531311 
	C301.102356,566.916992 302.947205,572.423035 304.949432,577.867065 
	C312.259064,597.741516 319.577637,617.612671 326.911682,637.825378 
	C327.795959,640.496277 328.661407,642.826904 329.618958,645.537354 
	C331.037994,649.508972 332.364929,653.100830 333.707153,656.925354 
	C334.226318,658.425171 334.730194,659.692261 335.309692,661.362549 
	C336.949249,665.874512 338.513275,669.983337 340.091980,674.459412 
	C344.738708,687.869507 344.738708,687.869446 358.372925,687.869446 
	C361.870270,687.869446 365.367645,687.879456 368.864960,687.867859 
	C391.675293,687.791931 414.485626,687.711426 437.739258,687.706909 
	C445.509705,687.765747 452.836884,687.750061 460.484253,687.879761 
	C466.944397,690.296265 473.108459,692.505615 479.205261,694.887085 
	C480.526733,695.403259 482.007111,696.295227 482.702881,697.444702 
	C483.709381,699.107666 484.067291,701.163269 484.701904,703.051331 
M199.976639,632.473572 
	C206.519318,640.602051 214.546921,646.108643 225.384979,645.945923 
	C234.203400,645.813599 239.502228,639.906311 239.168869,631.162354 
	C238.623779,616.864502 221.027267,602.172607 206.848679,604.177246 
	C198.508820,605.356384 193.448547,611.614807 194.941833,619.990723 
	C195.674988,624.103088 197.958252,627.939148 199.976639,632.473572 
z"/>
<path fill="#E8A672" opacity="1.000000" stroke="none" 
	d="
M326.892822,637.485107 
	C319.577637,617.612671 312.259064,597.741516 304.949432,577.867065 
	C302.947205,572.423035 301.102356,566.916992 298.954926,561.531311 
	C295.245605,552.228333 287.352448,547.012146 277.340546,547.000549 
	C268.870483,546.990723 260.400421,546.985779 251.465439,546.906250 
	C241.711960,517.400024 232.423401,487.966187 222.979767,458.170105 
	C221.866760,452.969116 218.657135,449.754181 214.090881,449.393372 
	C192.998260,447.726685 179.527939,435.058197 167.840973,419.028351 
	C161.679855,410.577820 154.404114,402.939941 147.268341,394.461823 
	C145.659164,391.698090 144.413300,389.407623 143.167450,387.117188 
	C139.350372,376.918671 138.601440,366.483887 141.054855,355.890350 
	C141.457764,354.150696 142.810165,352.630890 143.723740,351.009491 
	C145.223434,351.889893 146.970871,352.525757 148.151184,353.721466 
	C149.269104,354.853943 149.792267,356.573578 150.576981,358.034973 
	C151.226639,357.573822 151.876297,357.112640 152.525955,356.651459 
	C152.339783,353.908417 152.153610,351.165375 151.868027,346.957825 
	C158.260269,352.153870 163.565643,356.466431 169.242432,361.234375 
	C171.599976,363.124908 173.586121,364.560089 175.572266,365.995270 
	C182.372543,374.448334 190.377960,380.556213 202.007828,379.837189 
	C204.799118,379.664612 207.610138,379.811554 211.290619,379.811554 
	C208.938553,372.587830 206.654465,365.756348 204.510376,358.881226 
	C203.826202,356.687378 202.978958,354.324768 203.195374,352.137268 
	C203.377258,350.298859 204.995773,348.602600 205.978271,346.843414 
	C207.573044,347.792328 209.647675,348.378632 210.683868,349.749695 
	C216.895737,357.969330 222.804443,366.417236 228.946930,374.690491 
	C232.409485,379.354187 236.125320,383.829865 240.038391,388.976257 
	C243.911484,393.838837 247.473251,398.115417 251.035034,402.391998 
	C252.157364,405.178772 253.279724,407.965576 254.674561,411.400208 
	C255.393082,415.400238 255.839096,418.752350 256.285095,422.104492 
	C256.802673,427.883606 256.659424,433.823364 258.014832,439.398804 
	C259.512390,445.559021 262.383209,451.385437 264.898376,457.993469 
	C284.512543,493.667419 303.884247,528.705139 323.413818,564.028442 
	C330.311340,558.526672 336.804993,553.329285 343.317505,548.155762 
	C361.568115,533.657593 379.826538,519.169189 398.081879,504.676910 
	C400.730896,509.230682 403.518158,513.710449 406.003479,518.351868 
	C414.049255,533.377930 422.251740,548.332458 429.738525,563.635193 
	C431.256561,566.737976 429.911682,571.241333 429.476379,575.608521 
	C406.084900,590.186340 383.157379,604.343628 360.098846,618.284119 
	C349.159210,624.897888 337.969330,631.097778 326.892822,637.485107 
z"/>
<path fill="#E9A671" opacity="1.000000" stroke="none" 
	d="
M552.338684,635.784424 
	C562.233459,636.813049 572.128235,637.841736 582.595337,638.929871 
	C583.738464,630.084351 585.127930,621.447571 585.863586,612.755493 
	C586.236389,608.350952 587.530884,606.750183 592.199280,606.958618 
	C613.789185,607.921997 635.394775,608.532654 657.809021,609.297424 
	C655.817993,617.377075 653.917725,625.173218 651.973816,632.958618 
	C648.149353,648.275818 644.158630,663.553223 640.519104,678.914062 
	C638.554260,687.206787 635.322937,694.678467 629.009888,700.967407 
	C615.887085,710.635376 602.320374,712.636780 587.839966,704.699463 
	C585.551453,703.445007 582.931824,702.794495 579.802429,701.576416 
	C568.028198,697.763550 556.916748,694.239075 545.835571,690.321655 
	C547.242737,683.617554 549.201050,677.367249 549.870056,670.981873 
	C551.094849,659.291504 551.557983,647.521301 552.338684,635.784424 
z"/>
<path fill="#CE549D" opacity="1.000000" stroke="none" 
	d="
M552.248169,635.349365 
	C551.557983,647.521301 551.094849,659.291504 549.870056,670.981873 
	C549.201050,677.367249 547.242737,683.617554 545.556946,690.555908 
	C544.029602,694.635925 542.811218,698.088684 541.592773,701.541443 
	C538.988831,709.646912 533.197998,712.096741 525.085754,711.702209 
	C515.826538,711.251892 506.527985,711.536682 497.247559,711.619019 
	C491.308502,711.671753 486.989838,709.455994 484.844055,703.323730 
	C484.067291,701.163269 483.709381,699.107666 482.702881,697.444702 
	C482.007111,696.295227 480.526733,695.403259 479.205261,694.887085 
	C473.108459,692.505615 466.944397,690.296265 460.294678,687.606445 
	C453.827850,681.666748 450.631439,674.690552 449.077545,666.413452 
	C448.907410,651.128418 455.682587,639.509216 468.206665,634.653503 
	C472.329071,633.055176 473.639618,630.960632 472.985840,626.998230 
	C474.966003,618.216370 477.588867,616.144775 486.764862,616.142700 
	C503.721680,616.138916 520.678528,616.140625 537.635315,616.142090 
	C548.490479,616.143005 551.488037,619.042419 551.917480,629.936707 
	C551.982849,631.596497 552.076904,633.255188 552.248169,635.349365 
M454.637573,659.842957 
	C452.084473,675.300720 465.628662,690.922668 479.710175,688.235840 
	C478.133698,681.490356 476.558411,674.749756 475.009430,667.158936 
	C474.086639,657.891174 473.163849,648.623413 472.240265,639.347778 
	C463.318420,640.949158 455.853943,649.713684 454.637573,659.842957 
z"/>
<path fill="#E9D80B" opacity="1.000000" stroke="none" 
	d="
M542.097534,701.573242 
	C542.811218,698.088684 544.029602,694.635925 545.526733,690.948853 
	C556.916748,694.239075 568.028198,697.763550 579.417358,701.445679 
	C567.330872,701.603821 554.966614,701.604431 542.097534,701.573242 
z"/>
<path fill="#01BF63" opacity="1.000000" stroke="none" 
	d="
M398.039612,504.336609 
	C379.826538,519.169189 361.568115,533.657593 343.317505,548.155762 
	C336.804993,553.329285 330.311340,558.526672 323.413818,564.028442 
	C303.884247,528.705139 284.512543,493.667419 265.080994,458.280151 
	C314.139984,457.899689 363.258820,457.859863 412.377625,457.847900 
	C419.392273,457.846191 425.943115,456.622803 431.271637,451.568085 
	C436.715912,446.403473 438.582458,439.955536 438.572998,432.636993 
	C438.519775,391.509674 438.551300,350.382263 439.055481,308.731415 
	C458.378571,308.218170 477.200073,308.228363 496.008362,308.615814 
	C494.990356,313.500153 493.599457,317.961670 493.061432,322.523804 
	C491.952209,331.929718 492.140442,331.948059 501.131775,334.149139 
	C501.404785,334.215912 501.612427,334.549683 501.338257,334.308685 
	C502.737671,341.310028 504.029205,347.771790 505.321655,354.562256 
	C505.204620,355.314087 505.086731,355.737183 504.679321,356.302734 
	C492.442932,366.549194 483.857361,378.955231 479.000610,393.850952 
	C472.084473,415.062927 474.063385,435.704254 483.209442,455.842529 
	C454.757080,467.835632 426.303925,479.826904 397.854614,491.827209 
	C396.362671,492.456543 394.903107,493.162659 393.188080,493.942322 
	C394.898346,497.517670 396.447845,500.756958 398.039612,504.336609 
z"/>
<path fill="#DCE0DB" opacity="1.000000" stroke="none" 
	d="
M511.017975,37.414692 
	C514.662292,36.943062 518.286743,36.943062 522.685730,36.943062 
	C522.685730,41.721447 522.685730,45.974430 522.791199,51.147285 
	C522.904053,125.433464 522.909912,198.799774 522.925720,272.166077 
	C522.926270,274.492706 523.029358,276.819336 522.900269,279.424957 
	C521.497559,280.262421 520.279114,280.820892 518.831177,281.011963 
	C517.478699,280.445587 516.355591,280.072418 515.232666,280.072693 
	C461.217560,280.086212 407.202454,280.131927 353.187347,280.174042 
	C352.368530,266.003662 352.368530,266.003662 366.298615,266.003662 
	C412.611115,266.003632 458.923828,265.941223 505.235779,266.101501 
	C509.791290,266.117279 511.114288,264.930359 511.105133,260.286041 
	C510.959137,186.153030 510.999969,112.019630 511.017975,37.414692 
z"/>
<path fill="#CF58A0" opacity="1.000000" stroke="none" 
	d="
M285.995850,219.304810 
	C290.991608,219.310425 295.497101,219.142044 299.983185,219.364502 
	C305.759064,219.650909 309.262451,222.911682 309.419403,227.722488 
	C309.582184,232.712128 305.977325,236.169205 300.027924,236.659317 
	C298.703949,236.768402 297.364563,236.698532 296.032288,236.698563 
	C240.903351,236.699799 185.774399,236.706390 130.645477,236.675980 
	C128.331009,236.674698 125.975311,236.538681 123.711243,236.095474 
	C119.370468,235.245728 117.062088,232.340622 117.054291,227.997772 
	C117.046494,223.654205 119.391861,220.749069 123.665131,219.805878 
	C125.746689,219.346451 127.953262,219.324310 130.103348,219.323303 
	C181.901199,219.299042 233.699081,219.304489 285.995850,219.304810 
z"/>
<path fill="#CF56A0" opacity="1.000000" stroke="none" 
	d="
M147.495468,305.997894 
	C194.059341,305.994659 240.174072,305.993622 286.288818,305.997101 
	C287.786346,305.997192 289.736023,305.454041 290.690033,306.186493 
	C292.873993,307.863129 295.726349,309.979401 296.113586,312.285522 
	C296.443451,314.250061 294.123688,317.237762 292.192780,318.811859 
	C290.770874,319.970978 288.085663,319.839172 285.962860,319.841553 
	C241.013519,319.891968 196.064133,319.880157 151.114746,319.877258 
	C149.950027,319.877167 148.773590,319.939362 147.622726,319.802917 
	C143.585770,319.324402 140.346893,317.477753 140.271072,313.099548 
	C140.199097,308.943329 142.641907,306.322357 147.495468,305.997894 
z"/>
<path fill="#ADB0AC" opacity="1.000000" stroke="none" 
	d="
M353.482239,280.424866 
	C407.202454,280.131927 461.217560,280.086212 515.232666,280.072693 
	C516.355591,280.072418 517.478699,280.445587 518.672852,281.292877 
	C513.832031,286.056122 508.920044,290.171082 503.541229,294.242737 
	C460.695648,294.213165 418.316833,294.226898 375.938049,294.240631 
	C372.204102,294.240631 368.470184,294.240631 364.079865,294.240631 
	C364.079865,290.941132 363.850433,288.343414 364.132965,285.802643 
	C364.570374,281.869019 363.052124,280.403259 359.167908,280.854401 
	C357.401733,281.059570 355.575928,280.751160 353.482239,280.424866 
z"/>
<path fill="#CF56A0" opacity="1.000000" stroke="none" 
	d="
M122.846153,247.248108 
	C165.239929,247.158920 207.209152,247.129318 249.178391,247.135895 
	C255.273590,247.136856 259.077728,250.727280 257.810730,255.242691 
	C256.663818,259.330078 253.575974,260.196411 249.666092,260.186188 
	C218.022552,260.103424 186.378708,260.139832 154.734955,260.139862 
	C144.908737,260.139862 135.080917,260.037018 125.257080,260.190063 
	C121.307152,260.251587 118.147018,259.248840 117.206116,255.154373 
	C116.249435,250.991226 118.691917,248.611526 122.846153,247.248108 
z"/>
<path fill="#FCDB04" opacity="1.000000" stroke="none" 
	d="
M375.912292,294.684418 
	C418.316833,294.226898 460.695648,294.213165 503.448425,294.553589 
	C501.222168,299.351318 498.621887,303.794952 496.021606,308.238586 
	C477.200073,308.228363 458.378571,308.218170 439.055542,308.287323 
	C417.909668,308.366699 397.265289,308.366699 375.886536,308.366699 
	C375.886536,303.632843 375.886536,299.380524 375.912292,294.684418 
z"/>
<path fill="#D05BA2" opacity="1.000000" stroke="none" 
	d="
M158.011780,328.289978 
	C187.302567,328.290009 216.095734,328.289581 244.888901,328.290039 
	C246.220352,328.290070 247.554398,328.245514 248.882751,328.311768 
	C252.368179,328.485596 254.794205,330.269745 254.741837,333.788422 
	C254.689651,337.294861 252.297546,339.024506 248.738678,339.019867 
	C238.086884,339.005920 227.435074,339.017426 216.783264,339.017639 
	C193.815308,339.018097 170.847198,338.977997 147.879517,339.056213 
	C143.988846,339.069458 140.718613,338.396820 140.214371,333.903534 
	C139.823257,330.418457 142.888184,328.354919 148.027481,328.296509 
	C151.189316,328.260590 154.351913,328.289795 158.011780,328.289978 
z"/>
<path fill="#CE539E" opacity="1.000000" stroke="none" 
	d="
M251.500946,402.370178 
	C247.473251,398.115417 243.911484,393.838837 240.219589,389.257111 
	C265.696564,388.924438 291.303650,388.877563 316.910736,388.887390 
	C321.490570,388.889160 324.694641,391.653687 324.810120,395.417999 
	C324.929169,399.300903 322.246368,402.207489 317.283569,402.281067 
	C299.667358,402.542297 282.046539,402.501404 264.427368,402.538910 
	C260.274048,402.547760 256.120392,402.415649 251.500946,402.370178 
z"/>
<path fill="#050505" opacity="1.000000" stroke="none" 
	d="
M109.207756,321.207886 
	C105.106133,325.573792 101.254501,329.689697 96.925583,334.315643 
	C90.919357,328.120239 85.439079,322.789093 80.426117,317.049774 
	C79.301041,315.761658 79.810402,313.046021 79.567337,310.987549 
	C81.619606,311.170044 84.304337,310.593964 85.604858,311.678192 
	C89.418098,314.857239 92.680679,318.696777 96.673943,322.807739 
	C101.912743,317.448914 106.851501,312.326294 111.867935,307.280914 
	C121.147163,297.948151 130.467148,288.655853 139.781067,279.357635 
	C141.922729,277.219604 144.255844,274.505280 147.253647,277.708160 
	C149.906830,280.542877 147.569748,282.866821 145.513321,284.923218 
	C133.498138,296.938110 121.476921,308.946960 109.207756,321.207886 
z"/>
<path fill="#060606" opacity="1.000000" stroke="none" 
	d="
M109.327873,203.298889 
	C94.013260,218.637558 78.953293,233.725342 63.398293,249.309067 
	C57.902264,243.642441 52.604942,238.187759 47.316544,232.724442 
	C45.351521,230.694443 44.294224,228.062881 46.889912,226.355408 
	C48.187485,225.501846 51.464287,226.068710 52.829075,227.209549 
	C56.614918,230.374161 59.867325,234.176926 63.600536,238.004349 
	C72.906464,228.691483 81.842400,219.749771 90.777275,210.807007 
	C96.194572,205.384964 101.620552,199.971542 107.021400,194.533157 
	C109.110535,192.429489 111.454308,190.179443 114.167458,193.051437 
	C116.824829,195.864365 114.554199,198.187424 112.410378,200.223053 
	C111.444489,201.140198 110.523743,202.104874 109.327873,203.298889 
z"/>
<path fill="#FDDE0F" opacity="1.000000" stroke="none" 
	d="
M420.005341,193.646942 
	C415.175995,193.643066 410.796692,194.011642 406.537872,193.456268 
	C404.784790,193.227631 403.290924,191.011002 401.679169,189.698639 
	C403.322571,188.457352 404.956116,186.149933 406.610840,186.134644 
	C431.594086,185.903793 456.580048,185.981033 481.565399,185.963882 
	C484.325653,185.961975 486.905609,186.564026 486.834198,189.817581 
	C486.754547,193.444794 483.734253,193.635895 480.968445,193.638031 
	C460.813599,193.653519 440.658752,193.646835 420.005341,193.646942 
z"/>
<path fill="#FDDE0F" opacity="1.000000" stroke="none" 
	d="
M472.972046,151.028656 
	C451.323090,151.028641 430.168549,151.032013 409.014038,151.021439 
	C407.518555,151.020691 405.778473,151.372238 404.595032,150.736053 
	C403.361298,150.072830 402.083405,148.483185 401.919830,147.162918 
	C401.793335,146.142166 403.126434,144.482529 404.230743,143.890518 
	C405.440247,143.242096 407.132050,143.372437 408.613892,143.370834 
	C432.266937,143.345154 455.920044,143.351364 479.573120,143.356918 
	C480.737427,143.357193 482.165771,143.004196 483.007965,143.541611 
	C484.503754,144.496048 485.644165,146.007492 486.933228,147.285919 
	C485.608948,148.522720 484.431244,150.552612 482.929688,150.830093 
	C479.867645,151.395981 476.631134,151.017868 472.972046,151.028656 
z"/>
<path fill="#CE539E" opacity="1.000000" stroke="none" 
	d="
M456.000000,66.131882 
	C440.024414,66.131828 424.548828,66.137352 409.073242,66.122505 
	C407.580139,66.121071 405.845093,66.440338 404.661499,65.799583 
	C403.454193,65.146004 402.055420,63.466045 402.096100,62.282063 
	C402.135498,61.136566 403.708649,59.626915 404.962463,59.057487 
	C406.212128,58.489967 407.901886,58.871555 409.398682,58.871281 
	C432.695251,58.866985 455.991852,58.868263 479.288422,58.868271 
	C479.787628,58.868271 480.286926,58.874840 480.786011,58.867428 
	C483.513458,58.826923 486.727478,58.679916 486.780518,62.360428 
	C486.831696,65.912148 483.794678,66.153709 480.961334,66.142273 
	C472.807678,66.109360 464.653809,66.131371 456.000000,66.131882 
z"/>
<path fill="#CE549E" opacity="1.000000" stroke="none" 
	d="
M426.000061,98.867004 
	C444.136017,98.867012 461.772034,98.862968 479.408020,98.874657 
	C480.902283,98.875648 482.618256,98.544617 483.829926,99.159088 
	C485.104980,99.805710 486.689331,101.411072 486.677734,102.583046 
	C486.666229,103.744560 484.976868,105.091476 483.743469,105.959053 
	C483.061768,106.438553 481.805756,106.128471 480.808624,106.128677 
	C456.517517,106.133713 432.226440,106.132721 407.935333,106.132088 
	C407.269836,106.132072 406.423218,106.384911 405.972321,106.071709 
	C404.531982,105.071243 403.238464,103.859344 401.888275,102.729080 
	C403.270172,101.447556 404.587860,99.151596 406.045074,99.059311 
	C412.508179,98.649979 419.011383,98.872894 426.000061,98.867004 
z"/>
<path fill="#FDDE14" opacity="1.000000" stroke="none" 
	d="
M407.472198,155.675842 
	C424.219574,155.675385 440.517426,155.670914 456.815247,155.681564 
	C458.309814,155.682541 459.951935,155.415710 461.254242,155.943130 
	C462.386688,156.401764 463.904724,157.859192 463.844299,158.783173 
	C463.779297,159.776947 462.195526,160.883133 461.042328,161.519867 
	C460.268890,161.946915 459.091370,161.661438 458.094635,161.661682 
	C441.297882,161.665726 424.501129,161.664551 407.704376,161.664520 
	C407.538086,161.664520 407.339905,161.724274 407.210266,161.655304 
	C405.411743,160.698135 403.622559,159.723297 401.831116,158.752777 
	C403.561646,157.727173 405.292145,156.701553 407.472198,155.675842 
z"/>
<path fill="#070707" opacity="1.000000" stroke="none" 
	d="
M142.980469,387.398132 
	C144.413300,389.407623 145.659164,391.698090 146.946426,394.313477 
	C139.988220,401.974121 132.988602,409.309814 125.684464,416.964661 
	C119.293953,410.609100 113.518341,405.150787 108.178658,399.294952 
	C107.201195,398.223022 107.997177,395.533966 107.974518,393.591370 
	C109.910423,393.774200 112.452171,393.241028 113.670479,394.271912 
	C117.575706,397.576447 120.991150,401.459869 125.395821,405.932526 
	C131.373489,399.660828 137.083496,393.669922 142.980469,387.398132 
z"/>
<path fill="#D05AA2" opacity="1.000000" stroke="none" 
	d="
M450.974609,70.984039 
	C454.465973,70.987877 457.497131,70.730309 460.443573,71.117401 
	C461.716614,71.284630 462.814606,72.783760 463.992126,73.677856 
	C462.783020,74.744736 461.701904,76.471863 460.337280,76.736351 
	C457.769012,77.234108 455.037231,76.891968 452.373413,76.892227 
	C438.055176,76.893585 423.736969,76.892998 409.418732,76.892601 
	C408.253296,76.892570 406.943237,77.228012 405.956451,76.807159 
	C404.489136,76.181366 403.250366,75.019699 401.914337,74.086090 
	C403.285217,73.053116 404.643158,71.142502 406.028931,71.122101 
	C420.843414,70.904007 435.662354,70.985077 450.974609,70.984039 
z"/>
<path fill="#CE549E" opacity="1.000000" stroke="none" 
	d="
M407.317932,116.999039 
	C404.494019,116.931038 401.513031,117.045868 402.149353,113.685936 
	C402.369843,112.521500 405.348999,111.135933 407.082245,111.116653 
	C424.235382,110.925873 441.392487,110.914421 458.545074,111.128006 
	C460.362305,111.150627 463.614838,112.824715 463.698090,113.922539 
	C463.982208,117.667862 460.601410,116.965515 458.245117,116.972580 
	C441.423157,117.023064 424.600983,116.999542 407.317932,116.999039 
z"/>
<path fill="#FDDD0B" opacity="1.000000" stroke="none" 
	d="
M414.039917,198.128632 
	C428.646973,198.128647 442.759979,198.127350 456.873016,198.130676 
	C458.200989,198.130997 459.720520,197.760574 460.806885,198.280960 
	C462.076172,198.888931 462.967438,200.286041 464.022705,201.340790 
	C462.854218,202.230621 461.720520,203.829727 460.511230,203.889099 
	C454.879425,204.165497 449.226746,204.018188 443.581543,204.018753 
	C431.294922,204.019943 419.006378,204.122177 406.723938,203.895386 
	C405.084473,203.865112 403.475861,202.163788 401.852966,201.236328 
	C403.426147,200.201584 404.880676,198.664429 406.602203,198.257996 
	C408.804230,197.738144 411.221436,198.129730 414.039917,198.128632 
z"/>
<path fill="#FEDD07" opacity="1.000000" stroke="none" 
	d="
M387.687012,197.562363 
	C384.114960,201.655319 380.066010,202.933960 375.417572,200.663330 
	C371.457703,198.729019 369.541504,195.340790 370.012756,190.886917 
	C370.483612,186.436752 373.078003,183.607071 377.333649,182.445206 
	C381.244293,181.377548 384.616211,182.605911 387.145050,185.677963 
	C390.112885,189.283356 390.157471,193.231766 387.687012,197.562363 
z"/>
<path fill="#FEDD07" opacity="1.000000" stroke="none" 
	d="
M389.536011,149.104477 
	C388.137207,156.218872 384.654602,159.393951 379.024719,159.071442 
	C374.154388,158.792435 370.318604,155.007202 369.986023,150.151840 
	C369.630219,144.957535 373.036346,140.578552 377.995270,139.855011 
	C383.949463,138.986252 387.741852,141.906891 389.536011,149.104477 
z"/>
<path fill="#D05BA2" opacity="1.000000" stroke="none" 
	d="
M256.722595,422.042725 
	C255.839096,418.752350 255.393082,415.400238 254.930450,411.639832 
	C262.077576,411.190674 269.241394,411.153534 276.405121,411.107361 
	C280.040710,411.083954 282.838348,412.490631 282.907776,416.395630 
	C282.983795,420.673401 279.947021,421.904572 276.153748,421.903076 
	C269.822540,421.900574 263.491333,421.952148 256.722595,422.042725 
z"/>
<path fill="#0F100F" opacity="1.000000" stroke="none" 
	d="
M380.073914,109.829956 
	C379.015076,110.426140 377.700958,111.302895 377.426910,111.050461 
	C374.874573,108.699509 372.452728,106.197662 370.137146,103.610596 
	C369.851257,103.291206 370.407654,102.217896 370.790344,100.549835 
	C373.360687,102.765160 375.394379,104.517921 378.008209,106.770714 
	C383.444580,101.337379 388.918793,95.665031 394.652863,90.268837 
	C396.194885,88.817696 398.527252,88.206406 400.496796,87.209579 
	C399.409637,89.030113 398.613434,91.129372 397.183777,92.621803 
	C391.665955,98.381905 385.945831,103.948196 380.073914,109.829956 
z"/>
<path fill="#151615" opacity="1.000000" stroke="none" 
	d="
M372.474792,61.462883 
	C374.456757,63.220261 376.122528,64.792664 378.267517,66.817444 
	C384.352234,60.625401 390.212952,54.559013 396.225006,48.646542 
	C397.198364,47.689312 398.843872,47.415569 400.178680,46.825867 
	C399.627808,48.269508 399.451447,50.073147 398.465607,51.098648 
	C391.811279,58.020737 384.985535,64.778038 377.398895,72.409904 
	C375.043640,69.653618 372.985504,67.303001 370.995148,64.896324 
	C369.552094,63.151413 369.128296,61.632950 372.474792,61.462883 
z"/>
<path fill="#151615" opacity="1.000000" stroke="none" 
	d="
M175.758835,365.670654 
	C173.586121,364.560089 171.599976,363.124908 169.540848,361.337463 
	C171.299469,360.589996 173.131088,360.194794 174.962708,359.799622 
	C175.290283,361.648407 175.617844,363.497223 175.758835,365.670654 
z"/>
<path fill="#F3F9F2" opacity="1.000000" stroke="none" 
	d="
M873.500549,108.951065 
	C873.517334,167.234055 873.562561,225.517059 873.525452,283.800018 
	C873.518494,294.656158 867.140930,300.534485 855.618103,300.540527 
	C806.327087,300.566376 757.036133,300.547729 707.745117,300.553467 
	C687.262939,300.555878 666.780701,300.578705 645.662354,300.447266 
	C637.812866,286.742035 628.122192,275.530212 614.734924,267.644714 
	C601.815613,260.034882 587.772766,257.213196 572.995239,257.163727 
	C573.009338,208.133148 573.023376,159.102570 573.558777,109.613724 
	C671.725647,109.154144 769.371216,109.154137 867.016785,109.143188 
	C869.178040,109.142944 871.339294,109.017891 873.500549,108.951065 
M780.540894,153.114456 
	C744.249268,153.409882 707.957825,153.721085 671.666016,153.990158 
	C662.004456,154.061783 652.325073,153.680710 642.689209,154.184097 
	C639.378479,154.357056 636.175476,156.591705 632.325806,158.254318 
	C630.924866,162.565567 628.339172,166.870422 628.315796,171.189133 
	C628.166382,198.809204 628.546509,226.432678 628.826111,254.054276 
	C628.929016,264.221924 634.316589,269.277435 644.406799,269.202850 
	C693.500427,268.839783 742.594299,268.512024 791.688293,268.202759 
	C802.841858,268.132507 807.689758,263.353546 807.637512,252.023209 
	C807.528564,228.393219 807.333862,204.763641 807.834961,180.895615 
	C825.628723,175.219315 828.804504,154.521469 816.493164,143.678101 
	C806.129272,134.550003 788.053223,136.714554 780.540894,153.114456 
z"/>
<path fill="#010101" opacity="1.000000" stroke="none" 
	d="
M572.647949,257.350708 
	C587.772766,257.213196 601.815613,260.034882 614.734924,267.644714 
	C628.122192,275.530212 637.812866,286.742035 645.156616,300.546204 
	C647.516724,309.966858 649.746338,319.143555 652.042114,328.755493 
	C651.773071,337.486725 651.536377,345.769989 655.533081,353.757721 
	C659.731384,359.038391 663.266479,364.464783 667.639404,369.101074 
	C679.733032,381.923157 687.568604,396.731171 690.158203,414.220856 
	C693.480591,436.660156 688.423340,457.045197 674.945251,475.709320 
	C649.360291,457.950439 620.857117,447.671295 589.878479,442.207947 
	C589.496216,435.517303 589.624207,429.358643 589.410950,423.211761 
	C589.297485,419.942688 590.112976,417.793304 593.052185,415.830505 
	C596.143311,413.766327 598.513306,410.622253 601.552246,407.997803 
	C611.117798,411.505188 617.179932,407.845184 618.539062,398.158569 
	C629.661743,394.290100 636.398621,386.798157 638.624023,375.643555 
	C639.921448,369.140167 638.276917,363.313568 632.391602,358.514618 
	C631.782410,362.536133 631.273621,365.895142 630.707642,369.631805 
	C616.165283,364.278320 604.557556,355.490356 595.317627,343.508484 
	C586.101807,331.557922 580.882568,317.696289 576.694031,302.539459 
	C569.074280,315.516632 561.875488,327.647675 554.836792,339.870911 
	C553.387390,342.387909 551.919800,343.224548 548.910278,342.608612 
	C538.983582,340.576843 528.986267,338.886932 519.005310,337.126190 
	C515.981689,336.592743 512.923401,336.255402 509.838379,335.822266 
	C508.237000,342.348633 506.778870,348.291107 505.320740,354.233582 
	C504.029205,347.771790 502.737671,341.310028 501.338257,334.308685 
	C501.612427,334.549683 501.404785,334.215912 501.131775,334.149139 
	C492.140442,331.948059 491.952209,331.929718 493.061432,322.523804 
	C493.599457,317.961670 494.990356,313.500153 496.008362,308.615845 
	C498.621887,303.794952 501.222168,299.351318 503.915222,294.596863 
	C508.920044,290.171082 513.832031,286.056122 518.902405,281.660278 
	C520.279114,280.820892 521.497559,280.262421 523.244812,279.384033 
	C527.200745,276.261993 530.627869,273.459839 534.355713,270.537964 
	C538.191162,268.329498 541.725891,266.240753 545.260620,264.152008 
	C554.273987,261.947235 563.287354,259.742462 572.647949,257.350708 
z"/>
<path fill="#FEDC01" opacity="1.000000" stroke="none" 
	d="
M873.606323,108.500107 
	C871.339294,109.017891 869.178040,109.142944 867.016785,109.143188 
	C769.371216,109.154137 671.725647,109.154144 573.622437,109.159225 
	C573.112549,104.169083 572.937561,99.172768 573.035339,94.181793 
	C573.203857,85.580658 579.684692,79.110268 588.304199,79.029396 
	C599.963806,78.919998 611.625244,78.999702 623.285889,78.999664 
	C700.579346,78.999413 777.873474,79.157921 855.165588,78.833870 
	C867.169983,78.783539 874.585205,86.563438 873.801453,97.558197 
	C873.553284,101.039612 873.729858,104.551308 873.606323,108.500107 
M592.157288,88.596680 
	C588.539490,90.151947 586.638733,92.981392 588.772034,96.419701 
	C589.862793,98.177734 593.256897,99.860138 595.095642,99.421356 
	C596.948242,98.979294 599.285950,95.939034 599.416992,93.908516 
	C599.665222,90.060982 596.859680,88.095047 592.157288,88.596680 
M622.203064,91.503006 
	C619.989502,90.503281 617.663574,88.501724 615.588257,88.734535 
	C612.333435,89.099686 610.133484,92.163536 611.609375,95.306999 
	C612.567078,97.346848 615.660645,99.682518 617.734131,99.624573 
	C621.820618,99.510361 623.600464,96.417450 622.203064,91.503006 
M646.011108,94.399704 
	C645.003540,89.203491 641.501099,86.624290 638.007202,89.002739 
	C636.284668,90.175354 634.512817,93.039009 634.766235,94.858528 
	C635.023499,96.705872 637.485657,99.078758 639.448792,99.668823 
	C642.730286,100.655167 645.037354,98.514084 646.011108,94.399704 
z"/>
<path fill="#ADB0A8" opacity="1.000000" stroke="none" 
	d="
M534.054932,270.657715 
	C530.627869,273.459839 527.200745,276.261993 523.429199,279.105042 
	C523.029358,276.819336 522.926270,274.492706 522.925720,272.166077 
	C522.909912,198.799774 522.904053,125.433464 522.909851,51.609612 
	C526.357544,51.152061 529.791992,51.152061 533.959290,51.152061 
	C533.959290,55.755978 533.959290,59.988350 533.975830,65.147873 
	C533.965698,118.968254 533.927002,171.861496 533.920105,224.754745 
	C533.918152,240.055740 534.007507,255.356720 534.054932,270.657715 
z"/>
<path fill="#FDDC00" opacity="1.000000" stroke="none" 
	d="
M534.355713,270.537964 
	C534.007507,255.356720 533.918152,240.055740 533.920105,224.754745 
	C533.927002,171.861496 533.965698,118.968254 534.042603,65.619835 
	C537.557739,65.164658 541.022522,65.164658 545.183167,65.164658 
	C545.183167,131.440338 545.183167,197.317230 545.221924,263.673065 
	C541.725891,266.240753 538.191162,268.329498 534.355713,270.537964 
z"/>
<path fill="#CE549E" opacity="1.000000" stroke="none" 
	d="
M785.055603,372.153015 
	C810.480591,371.051788 831.481384,380.063293 848.593201,399.905029 
	C829.313782,415.367584 810.336426,430.587891 790.449341,446.537811 
	C815.631897,449.816711 839.591858,452.936432 863.949829,456.107971 
	C863.224670,465.698517 860.196350,474.220612 855.736267,482.197906 
	C840.028076,510.293732 810.590149,524.016907 782.771790,520.516968 
	C748.862122,516.250671 723.921753,493.185883 717.378052,461.354462 
	C713.572815,442.843964 716.749817,425.307617 726.572754,408.703125 
	C746.079224,419.251282 765.161560,430.004333 785.055603,441.214783 
	C785.055603,417.322723 785.055603,394.737885 785.055603,372.153015 
z"/>
<path fill="#FEDB02" opacity="1.000000" stroke="none" 
	d="
M784.972534,371.681580 
	C785.055603,394.737885 785.055603,417.322723 785.055603,441.214783 
	C765.161560,430.004333 746.079224,419.251282 726.722656,408.378357 
	C722.167786,405.743591 717.887024,403.228638 713.663818,400.747498 
	C721.936462,378.181885 759.355713,356.397034 784.889404,359.454590 
	C784.889404,363.311249 784.889404,367.260712 784.972534,371.681580 
z"/>
<path fill="#FEDC02" opacity="1.000000" stroke="none" 
	d="
M871.835571,416.257507 
	C875.962524,427.909027 877.925415,439.424927 876.004456,452.015839 
	C852.178772,448.939728 828.514099,445.884399 803.570129,442.663879 
	C822.976807,427.125885 841.593628,412.220337 861.268311,396.467804 
	C864.890808,403.206818 868.299744,409.548492 871.835571,416.257507 
z"/>
<path fill="#D05799" opacity="1.000000" stroke="none" 
	d="
M26.158863,163.888611 
	C22.590225,160.468552 21.512531,156.395157 24.355099,152.977585 
	C26.147476,150.822632 30.075428,148.937241 32.645531,149.360306 
	C35.208042,149.782089 38.453381,152.890808 39.203552,155.462082 
	C39.881046,157.784256 38.269909,161.570221 36.449291,163.637146 
	C33.769337,166.679672 29.928509,166.376862 26.158863,163.888611 
z"/>
<path fill="#D05799" opacity="1.000000" stroke="none" 
	d="
M61.150787,149.805267 
	C67.830017,148.149536 71.918060,150.085892 73.298203,155.201950 
	C74.521996,159.738373 71.803093,164.215500 67.012650,165.381470 
	C62.936672,166.373566 59.691441,164.843246 57.864594,161.257431 
	C55.619907,156.851456 56.616104,152.916061 61.150787,149.805267 
z"/>
<path fill="#D05799" opacity="1.000000" stroke="none" 
	d="
M104.800949,151.221771 
	C107.889740,154.847382 108.385628,158.844299 105.657867,161.922806 
	C103.871941,163.938354 100.359009,165.328873 97.602592,165.357437 
	C93.894852,165.395844 90.704056,162.575439 90.850906,158.743454 
	C90.961967,155.845215 92.457291,152.309143 94.547081,150.344666 
	C97.451729,147.614197 101.314354,148.384293 104.800949,151.221771 
z"/>
<path fill="#D05A96" opacity="1.000000" stroke="none" 
	d="
M716.815857,336.600311 
	C721.690430,334.152313 725.005798,334.799255 726.976685,338.259857 
	C728.825806,341.506561 727.737305,345.534088 724.366821,347.229614 
	C720.902527,348.972260 717.795959,348.201874 715.634888,345.016693 
	C713.718872,342.192719 714.164612,339.356049 716.815857,336.600311 
z"/>
<path fill="#D05799" opacity="1.000000" stroke="none" 
	d="
M673.724487,344.709595 
	C671.050415,348.346497 667.535278,349.433655 664.543762,346.804016 
	C662.761536,345.237244 661.623840,341.607361 662.022034,339.207947 
	C662.591125,335.779083 665.854187,334.416412 669.418030,335.085419 
	C673.460388,335.844269 675.118713,339.390442 673.724487,344.709595 
z"/>
<path fill="#D05799" opacity="1.000000" stroke="none" 
	d="
M696.510925,347.821350 
	C690.614624,347.833710 687.699341,345.345642 688.015076,340.997070 
	C688.295715,337.131378 691.804321,334.054199 695.574707,335.175171 
	C697.613464,335.781281 699.960388,337.754913 700.734314,339.686218 
	C702.136780,343.185974 700.390015,346.087921 696.510925,347.821350 
z"/>
<path fill="#E8A571" opacity="1.000000" stroke="none" 
	d="
M601.198425,407.950073 
	C598.513306,410.622253 596.143311,413.766327 593.052185,415.830505 
	C590.112976,417.793304 589.297485,419.942688 589.410950,423.211761 
	C589.624207,429.358643 589.496216,435.517303 589.487183,442.111328 
	C588.289490,447.082977 589.844299,449.599121 594.565613,450.801331 
	C597.712769,451.602722 600.833435,453.191254 603.489990,455.092560 
	C608.942139,458.994659 608.828552,464.905396 602.827332,467.858704 
	C596.781128,470.834076 590.277771,473.502441 583.688232,474.628510 
	C567.661438,477.367218 551.509033,477.102814 535.694397,472.848145 
	C531.440308,471.703674 527.284790,469.633545 523.549561,467.256714 
	C518.458923,464.017334 518.358704,459.007446 523.240112,455.430176 
	C526.137695,453.306763 529.542847,451.525024 532.991089,450.593506 
	C537.215149,449.452393 538.830139,447.354370 538.054871,442.321381 
	C538.132629,434.142456 538.232727,426.826660 538.090576,419.515594 
	C538.062683,418.078064 537.482727,415.794464 536.508789,415.362152 
	C524.104675,409.856140 515.681885,400.342987 509.052734,388.502441 
	C507.365784,381.807678 505.721741,375.489380 504.233826,368.741455 
	C504.582886,364.261292 504.775848,360.210785 504.968842,356.160309 
	C505.086731,355.737183 505.204620,355.314087 505.321625,354.562256 
	C506.778870,348.291107 508.237000,342.348633 509.838379,335.822266 
	C512.923401,336.255402 515.981689,336.592743 519.005310,337.126190 
	C528.986267,338.886932 538.983582,340.576843 548.910278,342.608612 
	C551.919800,343.224548 553.387390,342.387909 554.836792,339.870911 
	C561.875488,327.647675 569.074280,315.516632 576.694031,302.539459 
	C580.882568,317.696289 586.101807,331.557922 595.317627,343.508484 
	C604.557556,355.490356 616.165283,364.278320 630.707642,369.631805 
	C631.273621,365.895142 631.782410,362.536133 632.391602,358.514618 
	C638.276917,363.313568 639.921448,369.140167 638.624023,375.643555 
	C636.398621,386.798157 629.661743,394.290100 618.473511,397.779602 
	C615.361572,388.992371 607.649658,385.831451 601.239990,390.573853 
	C595.766296,394.623779 595.751465,400.833435 601.198425,407.950073 
z"/>
<path fill="#E8A672" opacity="1.000000" stroke="none" 
	d="
M472.544617,627.004700 
	C473.639618,630.960632 472.329071,633.055176 468.206665,634.653503 
	C455.682587,639.509216 448.907410,651.128418 448.764465,666.560547 
	C443.560333,670.823608 438.680481,674.498718 433.407227,678.216980 
	C428.144440,677.877563 422.968597,678.416260 418.469604,676.919983 
	C409.190582,673.833923 400.247284,669.722351 391.215271,665.915466 
	C385.280365,663.413940 379.758575,664.041260 374.809540,668.024292 
	C357.944702,681.597290 359.388428,679.487305 340.077301,674.092163 
	C338.513275,669.983337 336.949249,665.874512 335.591034,661.133057 
	C338.632751,657.649780 341.468689,654.799133 344.304626,651.948547 
	C343.978333,651.528809 343.652039,651.109070 343.325745,650.689331 
	C340.114471,652.690430 336.903168,654.691589 333.691864,656.692688 
	C332.364929,653.100830 331.037994,649.508972 329.871155,645.269287 
	C334.223389,642.085999 338.160950,638.057251 342.654663,637.291382 
	C356.904968,634.862671 371.368164,633.695435 385.739044,631.957886 
	C399.113495,630.340698 412.475098,628.617676 425.842377,626.941284 
	C429.448853,626.622009 433.122681,626.635803 436.649536,625.922668 
	C448.580078,623.510437 460.306519,626.082642 472.544617,627.004700 
z"/>
<path fill="#010201" opacity="1.000000" stroke="none" 
	d="
M509.095642,388.878876 
	C515.681885,400.342987 524.104675,409.856140 536.508789,415.362152 
	C537.482727,415.794464 538.062683,418.078064 538.090576,419.515594 
	C538.232727,426.826660 538.132629,434.142456 537.998901,441.857422 
	C519.350830,444.620270 501.396912,449.274139 483.562897,455.827576 
	C474.063385,435.704254 472.084473,415.062927 479.000610,393.850952 
	C483.857361,378.955231 492.442932,366.549194 504.679321,356.302734 
	C504.775848,360.210785 504.582886,364.261292 503.855530,368.735352 
	C495.510620,371.241882 491.990173,376.581940 494.116577,383.121185 
	C496.048279,389.061462 502.271576,391.453583 509.095642,388.878876 
z"/>
<path fill="#03BF63" opacity="1.000000" stroke="none" 
	d="
M425.842285,626.477173 
	C412.475098,628.617676 399.113495,630.340698 385.739044,631.957886 
	C371.368164,633.695435 356.904968,634.862671 342.654663,637.291382 
	C338.160950,638.057251 334.223389,642.085999 329.779053,644.889526 
	C328.661407,642.826904 327.795959,640.496277 326.911682,637.825378 
	C337.969330,631.097778 349.159210,624.897888 360.098846,618.284119 
	C383.157379,604.343628 406.084900,590.186340 429.389984,576.022949 
	C428.423248,592.622925 427.132721,609.317932 425.842285,626.477173 
z"/>
<path fill="#F2F7F1" opacity="1.000000" stroke="none" 
	d="
M199.758331,632.186890 
	C197.958252,627.939148 195.674988,624.103088 194.941833,619.990723 
	C193.448547,611.614807 198.508820,605.356384 206.848679,604.177246 
	C221.027267,602.172607 238.623779,616.864502 239.168869,631.162354 
	C239.502228,639.906311 234.203400,645.813599 225.384979,645.945923 
	C214.546921,646.108643 206.519318,640.602051 199.758331,632.186890 
z"/>
<path fill="#02BB61" opacity="1.000000" stroke="none" 
	d="
M340.091980,674.459412 
	C359.388428,679.487305 357.944702,681.597290 374.809540,668.024292 
	C379.758575,664.041260 385.280365,663.413940 391.215271,665.915466 
	C400.247284,669.722351 409.190582,673.833923 418.469604,676.919983 
	C422.968597,678.416260 428.144440,677.877563 433.480225,678.570923 
	C435.063080,681.798523 436.179535,684.715454 437.295959,687.632385 
	C414.485626,687.711426 391.675293,687.791931 368.864960,687.867859 
	C365.367645,687.879456 361.870270,687.869446 358.372925,687.869446 
	C344.738708,687.869446 344.738708,687.869507 340.091980,674.459412 
z"/>
<path fill="#F8D603" opacity="1.000000" stroke="none" 
	d="
M437.739258,687.706909 
	C436.179535,684.715454 435.063080,681.798523 433.873657,678.527710 
	C438.680481,674.498718 443.560333,670.823608 448.753235,667.001465 
	C450.631439,674.690552 453.827850,681.666748 459.974487,687.460999 
	C452.836884,687.750061 445.509705,687.765747 437.739258,687.706909 
z"/>
<path fill="#1EBB65" opacity="1.000000" stroke="none" 
	d="
M333.707153,656.925354 
	C336.903168,654.691589 340.114471,652.690430 343.325745,650.689331 
	C343.652039,651.109070 343.978333,651.528809 344.304626,651.948547 
	C341.468689,654.799133 338.632751,657.649780 335.515442,660.729858 
	C334.730194,659.692261 334.226318,658.425171 333.707153,656.925354 
z"/>
<path fill="#FBD703" opacity="1.000000" stroke="none" 
	d="
M474.983093,668.009277 
	C476.558411,674.749756 478.133698,681.490356 479.710175,688.235840 
	C465.628662,690.922668 452.084473,675.300720 455.276306,659.474487 
	C462.271088,662.073730 468.627075,665.041504 474.983093,668.009277 
z"/>
<path fill="#E9A572" opacity="1.000000" stroke="none" 
	d="
M474.996246,667.584106 
	C468.627075,665.041504 462.271088,662.073730 455.544189,659.177856 
	C455.853943,649.713684 463.318420,640.949158 472.240265,639.347778 
	C473.163849,648.623413 474.086639,657.891174 474.996246,667.584106 
z"/>
<path fill="#913B70" opacity="1.000000" stroke="none" 
	d="
M807.174377,181.133896 
	C807.333862,204.763641 807.528564,228.393219 807.637512,252.023209 
	C807.689758,263.353546 802.841858,268.132507 791.688293,268.202759 
	C742.594299,268.512024 693.500427,268.839783 644.406799,269.202850 
	C634.316589,269.277435 628.929016,264.221924 628.826111,254.054276 
	C628.546509,226.432678 628.166382,198.809204 628.315796,171.189133 
	C628.339172,166.870422 630.924866,162.565567 632.976074,158.137314 
	C658.874329,173.977982 684.176514,189.851013 709.329407,205.957306 
	C715.072876,209.635056 720.225769,209.893082 725.929077,206.119064 
	C738.386658,197.875610 751.015198,189.890808 763.502991,181.692352 
	C769.859253,177.519333 776.062195,173.112732 782.564697,169.040558 
	C788.095154,179.031784 796.419983,182.578903 807.174377,181.133896 
z"/>
<path fill="#CE549E" opacity="1.000000" stroke="none" 
	d="
M782.334473,168.811737 
	C776.062195,173.112732 769.859253,177.519333 763.502991,181.692352 
	C751.015198,189.890808 738.386658,197.875610 725.929077,206.119064 
	C720.225769,209.893082 715.072876,209.635056 709.329407,205.957306 
	C684.176514,189.851013 658.874329,173.977982 633.274780,157.952393 
	C636.175476,156.591705 639.378479,154.357056 642.689209,154.184097 
	C652.325073,153.680710 662.004456,154.061783 671.666016,153.990158 
	C707.957825,153.721085 744.249268,153.409882 780.936523,153.608795 
	C781.666321,159.006012 782.000366,163.908890 782.334473,168.811737 
z"/>
<path fill="#FEDC02" opacity="1.000000" stroke="none" 
	d="
M782.564697,169.040558 
	C782.000366,163.908890 781.666321,159.006012 781.436768,153.660522 
	C788.053223,136.714554 806.129272,134.550003 816.493164,143.678101 
	C828.804504,154.521469 825.628723,175.219315 807.504639,181.014755 
	C796.419983,182.578903 788.095154,179.031784 782.564697,169.040558 
z"/>
<path fill="#F2F6EF" opacity="1.000000" stroke="none" 
	d="
M601.552246,407.997772 
	C595.751465,400.833435 595.766296,394.623779 601.239990,390.573853 
	C607.649658,385.831451 615.361572,388.992371 618.113159,397.841949 
	C617.179932,407.845184 611.117798,411.505188 601.552246,407.997772 
z"/>
<path fill="#D05A96" opacity="1.000000" stroke="none" 
	d="
M592.512695,88.459915 
	C596.859680,88.095047 599.665222,90.060982 599.416992,93.908516 
	C599.285950,95.939034 596.948242,98.979294 595.095642,99.421356 
	C593.256897,99.860138 589.862793,98.177734 588.772034,96.419701 
	C586.638733,92.981392 588.539490,90.151947 592.512695,88.459915 
z"/>
<path fill="#D05A96" opacity="1.000000" stroke="none" 
	d="
M622.366333,91.847534 
	C623.600464,96.417450 621.820618,99.510361 617.734131,99.624573 
	C615.660645,99.682518 612.567078,97.346848 611.609375,95.306999 
	C610.133484,92.163536 612.333435,89.099686 615.588257,88.734535 
	C617.663574,88.501724 619.989502,90.503281 622.366333,91.847534 
z"/>
<path fill="#D05A96" opacity="1.000000" stroke="none" 
	d="
M645.991943,94.791626 
	C645.037354,98.514084 642.730286,100.655167 639.448792,99.668823 
	C637.485657,99.078758 635.023499,96.705872 634.766235,94.858528 
	C634.512817,93.039009 636.284668,90.175354 638.007202,89.002739 
	C641.501099,86.624290 645.003540,89.203491 645.991943,94.791626 
z"/>
<path fill="#F0F4ED" opacity="1.000000" stroke="none" 
	d="
M509.052734,388.502441 
	C502.271576,391.453583 496.048279,389.061462 494.116577,383.121185 
	C491.990173,376.581940 495.510620,371.241882 503.699463,369.165039 
	C505.721741,375.489380 507.365784,381.807678 509.052734,388.502441 
z"/>
</svg>